<mxfile host="app.diagrams.net" modified="2022-05-23T04:35:09.814Z" agent="5.0 (Windows NT 10.0; Win64; x64) AppleWebKit/537.36 (KHTML, like Gecko) Chrome/101.0.4951.67 Safari/537.36" etag="cm3iTpEg71vlBf-zMB0z" version="18.1.1" type="github">
  <diagram id="eqEMP2SnhcjgVuvOndcv" name="Page-1">
    <mxGraphModel dx="514" dy="713" grid="1" gridSize="10" guides="1" tooltips="1" connect="1" arrows="1" fold="1" page="1" pageScale="1" pageWidth="2336" pageHeight="1654" math="0" shadow="0">
      <root>
        <mxCell id="0" />
        <mxCell id="1" parent="0" />
      </root>
    </mxGraphModel>
  </diagram>
</mxfile>
